<?xml version="1.0" encoding="UTF-8" standalone="no"?>
<svg width="223px" height="255px" viewBox="0 0 223 255" version="1.1" xmlns="http://www.w3.org/2000/svg" xmlns:xlink="http://www.w3.org/1999/xlink" xmlns:sketch="http://www.bohemiancoding.com/sketch/ns">
    <title>bren-cartoon</title>
    <description>Created with Sketch (http://www.bohemiancoding.com/sketch)</description>
    <defs></defs>
    <g id="Page-2" stroke="none" stroke-width="1" fill="none" fill-rule="evenodd" sketch:type="MSPage">
        <g id="bren" sketch:type="MSLayerGroup" transform="translate(-5.000000, 0.000000)">
            <path d="M68,206 C87.3220513,237.138243 118.093325,255 133.5,255 C147.516232,255 173.519574,242.056983 192,214 C210.82479,185.420207 218,141.581374 218,126.5 C218,124.724528 212,70.9324324 212,70.9324324 L223,64 L212,54 L223,43 L206,37 L228,29.2567558 L133.5,0 L80,13.0495495 L66,0 L58,29.2567558 L50,18.8378378 C50,18.8378378 45,98.9875146 45,126.5 C45,140.083283 51.4704262,179.361943 68,206 Z M132.5,241 C165.999999,240.999985 203.999999,186.496924 203.999999,138.681798 C203.999999,133.641279 204,104.247787 204,104.247787 L198,77.6844075 L183,77.684408 L167,68.9999998 L132.5,81.0000008 C132.5,81.0000008 101.876895,47.707702 80,55 C77,55.9999999 72.5867807,62.3473341 69,69.9999997 C64.6438885,79.2940888 64.0000001,80.0000004 62,90 C60,99.9999997 60.0000383,118.809041 60,134.746481 C59.9998837,182.561608 98.9999998,241.000017 132.5,241 Z" id="head" fill="#000000" sketch:type="MSShapeGroup"></path>
            <path d="M143.3,175 C144.7904,175 146,173.208 146,171 C146,168.792 144.7904,167 143.3,167 L121.7,167 C120.2096,167 119,168.792 119,171 C119,173.208 120.2096,175 121.7,175 L143.3,175 Z" id="nose" fill="#000000" sketch:type="MSShapeGroup"></path>
            <path d="M135.400538,215.96956 C147.199268,214.119374 156.668074,208.588244 162.779077,193.90276 C163.774386,191.43496 163.214114,188.452341 161.526296,187.291683 C161.01882,186.946686 160.465999,186.806238 159.915919,186.842853 C158.636335,186.928857 157.365117,187.962 156.670973,189.655602 C151.877937,201.023598 144.670969,207.289341 135.772759,207.289341 C129.985063,207.289342 122.83245,207.607434 118.615959,202.925475 C117.26286,201.475692 115.01657,201.658957 113.603123,203.288678 C112.189552,204.894969 112.13787,207.328065 113.488609,208.773652 C118.957422,214.874057 127.805661,215.520056 135.400538,215.96956 Z" id="mouth" fill="#000000" sketch:type="MSShapeGroup"></path>
            <path d="M28.9013715,40.7633342 L20.8650155,60.1103422 L20.8650155,107.488701 L38.0551264,107.488701 L38.0551264,60.1103422 L29.4600709,39.4183013 L28.9013715,40.7633342 Z M31.3755404,51.5737297 L28.2322059,51.5737297 L24.3030377,60.3415935 L26.6605387,63.7291582 L29.8038731,60.3415935 L32.9472077,63.7291582 L35.3047086,60.3415935 L31.3755404,51.5737297 Z" id="pencil" fill="#000000" sketch:type="MSShapeGroup" transform="translate(29.460071, 73.453501) rotate(-44.000000) translate(-29.460071, -73.453501) "></path>
            <g id="eyes" transform="translate(81.000000, 117.000000)" fill="#000000" sketch:type="MSShapeGroup">
                <path d="M11.5,23 C17.8512749,23 23,17.8512749 23,11.5 C23,5.14872506 17.8512749,0 11.5,0 C5.14872506,0 0,5.14872506 0,11.5 C0,17.8512749 5.14872506,23 11.5,23 Z" id="Oval"></path>
                <circle id="Oval" cx="91.5" cy="11.5" r="11.5"></circle>
            </g>
            <g id="glasses" transform="translate(59.000000, 105.000000)" sketch:type="MSShapeGroup">
                <path d="M85.8,14 C87.5664,14 89,12.432 89,10.5 C89,8.568 87.5664,7 85.8,7 L60.2,7 C58.4336,7 57,8.568 57,10.5 C57,12.432 58.4336,14 60.2,14 L85.8,14 Z" id="Shape" fill="#000000"></path>
                <path d="M0,0 L8.40946502,46 L59.2453704,46 L67,0 L0,0 Z" id="Rectangle-1" stroke="#000000" stroke-width="6"></path>
                <path d="M79,0 L87.409465,46 L138.24537,46 L146,0 L79,0 Z" id="Rectangle-1" stroke="#000000" stroke-width="6"></path>
            </g>
        </g>
    </g>
</svg>